<?xml version="1.0" encoding="UTF-8" standalone="no"?>
<!DOCTYPE svg PUBLIC "-//W3C//DTD SVG 1.1//EN" "http://www.w3.org/Graphics/SVG/1.1/DTD/svg11.dtd">
<svg width="100%" height="100%" viewBox="0 0 450 450" version="1.1" xmlns="http://www.w3.org/2000/svg" xmlns:xlink="http://www.w3.org/1999/xlink" xml:space="preserve" xmlns:serif="http://www.serif.com/" style="fill-rule:evenodd;clip-rule:evenodd;stroke-linejoin:round;stroke-miterlimit:1.41421;">
    <g id="icon_print" transform="matrix(0.270433,0,0,0.270433,0.000277771,17.3078)">
        <path d="M384,1408L1280,1408L1280,1152L384,1152L384,1408ZM384,768L1280,768L1280,384L1120,384C1093.33,384 1070.67,374.667 1052,356C1033.33,337.333 1024,314.667 1024,288L1024,128L384,128L384,768ZM1536,832C1536,814.667 1529.67,799.667 1517,787C1504.33,774.333 1489.33,768 1472,768C1454.67,768 1439.67,774.333 1427,787C1414.33,799.667 1408,814.667 1408,832C1408,849.333 1414.33,864.333 1427,877C1439.67,889.667 1454.67,896 1472,896C1489.33,896 1504.33,889.667 1517,877C1529.67,864.333 1536,849.333 1536,832ZM1664,832L1664,1248C1663.79,1265.47 1649.47,1279.79 1632,1280L1408,1280L1408,1440C1408,1466.67 1398.67,1489.33 1380,1508C1361.33,1526.67 1338.67,1536 1312,1536L352,1536C325.333,1536 302.667,1526.67 284,1508C265.333,1489.33 256,1466.67 256,1440L256,1280L32,1280C23.515,1280.07 15.368,1276.63 9.5,1270.5C3.371,1264.63 -0.069,1256.49 0,1248L0,832C0,779.333 18.833,734.167 56.5,696.5C94.167,658.833 139.333,640 192,640L256,640L256,96C256,69.333 265.333,46.667 284,28C302.667,9.333 325.333,0 352,0L1024,0C1050.67,0 1080,6.667 1112,20C1144,33.333 1169.33,49.333 1188,68L1340,220C1358.67,238.667 1374.67,264 1388,296C1401.33,328 1408,357.333 1408,384L1408,640L1472,640C1524.67,640 1569.83,658.833 1607.5,696.5C1645.17,734.167 1664,779.333 1664,832Z" style="fill-rule:nonzero;"/>
    </g>
</svg>
