<?xml version="1.0" encoding="UTF-8" standalone="no"?>
<!DOCTYPE svg PUBLIC "-//W3C//DTD SVG 1.1//EN" "http://www.w3.org/Graphics/SVG/1.1/DTD/svg11.dtd">
<svg width="100%" height="100%" viewBox="0 0 1200 678" version="1.1" xmlns="http://www.w3.org/2000/svg" xmlns:xlink="http://www.w3.org/1999/xlink" xml:space="preserve" xmlns:serif="http://www.serif.com/" style="fill-rule:evenodd;clip-rule:evenodd;stroke-linejoin:round;stroke-miterlimit:1.41421;">
    <g id="icon_pegasus" transform="matrix(18.5149,0,0,18.5176,0.132502,-0.0139019)">
        <path d="M22.4,0.83C22.4,1.04 21.21,0.71 21.21,1.37C21.21,2.03 24.07,1.37 24.07,1.66C24.07,1.95 22.82,1.66 22.83,2.12C22.84,2.58 25.16,2.04 25.18,2.31C25.2,2.58 24.36,2.31 24.36,2.72C24.631,2.924 24.977,3.004 25.31,2.94C27,3.01 28.73,3.15 30.31,3.32C40.31,4.37 49.78,6.67 51.59,7.79C52.97,4.79 44.75,3.25 37.41,1.79C31.14,0.54 20.23,-0.64 20.26,0.4C20.26,1.12 22.38,0.6 22.4,0.83M50.88,25.83C50.982,25.991 51.037,26.177 51.037,26.368C51.037,26.715 50.856,27.038 50.56,27.22C49,28.83 44,31.4 40.88,30.08C41.38,29.442 42.088,29 42.88,28.83C42.944,29.203 43.27,29.478 43.649,29.478C43.939,29.478 44.206,29.317 44.34,29.06C45.129,28.856 45.901,28.592 46.65,28.27C47.99,27.68 49.06,27.07 48.85,26.68C48.64,26.29 43.73,25.52 43.62,25.47C43.568,25.456 43.512,25.456 43.46,25.47C41.819,26.001 40.104,26.264 38.38,26.25C37.004,26.249 35.632,26.095 34.29,25.79C34.14,25.79 32.96,25.39 32.96,25.39C32.591,25.283 32.213,25.212 31.83,25.18C31.219,25.179 30.618,25.341 30.09,25.65C29.562,25.959 21.99,30.17 15.19,33.6C11.25,35.6 8.79,36.76 6.19,36.6C6.481,35.832 7.01,35.176 7.7,34.73C8.39,34.284 8.55,36.29 9.32,34.65C11.61,34.078 13.664,32.801 15.19,31C15.943,30.114 16.86,29.38 17.89,28.84C19.35,28.05 21.16,26.91 21.3,26.15C21.304,26.11 21.304,26.07 21.3,26.03C21.027,24.294 21.508,22.521 22.62,21.16C22.93,20.7 21.36,19.88 18.04,21.16C16.566,21.827 15.053,22.404 13.51,22.89C13.27,22.7 14.51,22.05 15.75,21.51C16.75,21.1 17.69,20.82 17.58,20.68C17.47,20.54 15.66,21.14 14.46,21.68C13.465,22.21 12.415,22.633 11.33,22.94C11,22.68 12.59,22 14.19,21.26C15.59,20.57 16.35,20.35 16.19,20.26C16.03,20.17 15,20.5 13.41,21.1C11.59,21.77 9.71,22.86 9.55,22.68C9.39,22.5 11.01,21.62 12.72,20.85C14.1,20.23 14.61,20.02 14.47,19.85C14.33,19.68 13.73,19.96 11.78,20.68C9.83,21.4 7.9,22.62 7.72,22.4C7.54,22.18 8.84,21.52 10.35,20.77C11.86,20.02 12.53,19.85 12.35,19.67C12.17,19.49 11.09,19.95 9.19,20.67C7.29,21.39 5.42,22.5 5.28,22.31C5.14,22.12 6.53,21.41 8.28,20.59C9.76,19.88 10.28,19.67 10.09,19.53C9.9,19.39 8.72,20 6.95,20.69C5.18,21.38 3.7,22.26 3.55,22.07C3.4,21.88 4.48,21.32 6,20.67C7.52,20.02 8.7,19.67 8.49,19.49C8.28,19.31 2.54,21.68 2.36,21.55C2.18,21.42 3,21.06 4.74,20.38C6.18,19.82 7.19,19.53 7.04,19.38C6.89,19.23 6.53,19.43 5.13,19.9C3.73,20.37 1.33,21.49 1.21,21.3C1.09,21.11 2.3,20.6 3.43,20.17C4.43,19.81 5.25,19.57 5.07,19.48C4.89,19.39 3.49,19.9 2.16,20.32C1,20.72 0.11,21.1 0,20.88C-0.11,20.66 1,20.35 2,20.05C2.74,19.83 3.15,19.71 3.07,19.61C2.614,19.559 2.152,19.614 1.72,19.77C1.218,19.966 0.677,20.045 0.14,20C0.03,19.51 6.3,18.41 11.14,18.09C19.82,17.52 23.14,19.76 23.6,20.09C23.639,20.118 23.691,20.118 23.73,20.09C26.476,18.52 29.67,17.914 32.8,18.37C32.23,17.59 33.09,17.56 33.1,17.26C33.11,16.96 32.39,16.95 32.36,16.38C32.33,15.81 33.01,15.86 33.02,15.59C33.03,15.32 32.6,15.43 32.61,14.91C32.62,14.39 33.31,14.63 33.31,14.33C33.141,14.061 33.007,13.772 32.91,13.47C32.91,12.95 33.54,13.15 33.54,12.78C33.506,12.472 33.249,12.233 32.94,12.22C31.74,11.87 24.83,11.92 24.65,11.4C24.47,10.88 24.93,10.89 24.92,10.72C24.91,10.55 23.16,10.4 21.54,10.43C20.54,10.43 20.37,10.1 20.38,9.75C20.384,9.726 20.386,9.701 20.386,9.677C20.386,9.436 20.187,9.237 19.946,9.237C19.91,9.237 19.875,9.241 19.84,9.25C18.61,9.25 18.16,9.25 18.15,8.75C18.15,8.39 18.39,8.04 17.38,8.14C16.56,8.23 16.89,7.86 16.8,7.49C16.71,7.12 15.4,7.74 15.4,7.14C15.4,6.03 13.48,7.14 13.4,6.32C13.32,5.5 15.63,5.9 15.62,5.32C15.61,4.74 12.25,5.7 11.45,5.75C10.65,5.8 10.83,5.53 10.7,5.22C10.57,4.91 8.43,5.54 8.39,5.15C8.35,4.76 9,5.07 8.91,4.74C8.82,4.41 6.6,5.25 6.53,4.54C6.46,3.83 19.53,2.54 30.16,3.66C41,4.78 51.37,7.4 51.78,8.37C52.11,9.17 50.78,9.45 49.19,11.37C48.061,12.885 47.186,14.574 46.6,16.37C46.633,16.379 46.667,16.379 46.7,16.37C48.853,15.781 50.899,14.853 52.76,13.62C54.159,12.782 55.616,12.043 57.12,11.41C57.73,11.16 57.66,9.86 57.78,9.79C57.9,9.72 58,11 58.42,10.88C58.84,10.76 58.55,9.74 58.66,9.68C59.049,9.953 59.275,10.405 59.26,10.88C59.258,10.954 59.302,11.021 59.37,11.05C60.87,11.6 65.09,13.32 64.79,14.6C64.59,15.48 63.51,15.28 62.79,15.15C62.03,15.052 61.259,15.086 60.51,15.25C59.815,15.61 58.993,15.632 58.28,15.31L58.21,15.39C57.74,15.59 56.86,16.1 56.86,16.1C55.18,17.18 53.662,18.493 52.35,20C51.458,21.028 50.452,21.951 49.35,22.75L49.35,22.8C49.77,22.92 53.7,24 54,24.1C54.3,24.2 55.67,24.69 54.56,26.22C53.45,27.75 49.46,31.22 46.48,30.75C46.813,30.137 47.317,29.633 47.93,29.3C48.543,28.967 48.7,30.36 49.19,29.08C50.701,28.206 52.073,27.11 53.26,25.83C53.32,25.76 53.19,25.72 53.14,25.72L51.04,25.72L50.88,25.83Z" style="fill-rule:nonzero;"/>
    </g>
</svg>
