<?xml version="1.0" encoding="UTF-8" standalone="no"?>
<!DOCTYPE svg PUBLIC "-//W3C//DTD SVG 1.1//EN" "http://www.w3.org/Graphics/SVG/1.1/DTD/svg11.dtd">
<svg width="100%" height="100%" viewBox="0 0 450 450" version="1.1" xmlns="http://www.w3.org/2000/svg" xmlns:xlink="http://www.w3.org/1999/xlink" xml:space="preserve" xmlns:serif="http://www.serif.com/" style="fill-rule:evenodd;clip-rule:evenodd;stroke-linejoin:round;stroke-miterlimit:1.41421;">
    <g id="icon_twitter" transform="matrix(1,0,0,0.998799,0.001,0.291766)">
        <path d="M449.956,85.657C432.254,93.271 414.548,98.026 396.854,99.936C416.839,87.945 430.357,71.005 437.4,49.117C419.119,59.964 399.613,67.385 378.868,71.384C360.594,51.97 338.138,42.259 311.485,42.259C285.983,42.259 264.239,51.251 246.245,69.239C228.261,87.226 219.268,108.97 219.268,134.474C219.268,141.325 220.028,148.37 221.552,155.602C183.864,153.699 148.51,144.23 115.484,127.195C82.46,110.158 54.433,87.46 31.403,59.101C23.028,73.373 18.839,88.888 18.839,105.637C18.839,121.435 22.55,136.093 29.977,149.607C37.399,163.119 47.394,174.062 59.957,182.438C45.108,181.866 31.214,177.963 18.273,170.73L18.273,171.872C18.273,194.143 25.268,213.696 39.256,230.546C53.246,247.394 70.901,257.999 92.217,262.379C84.295,264.461 76.139,265.516 67.948,265.517C62.618,265.517 56.812,265.042 50.532,264.097C56.432,282.556 67.282,297.73 83.078,309.632C98.877,321.528 116.769,327.66 136.755,328.05C103.257,354.312 65.095,367.443 22.269,367.443C14.083,367.443 6.662,367.07 -0.001,366.304C42.826,393.9 90.029,407.698 141.611,407.698C174.349,407.698 205.089,402.517 233.821,392.141C262.567,381.772 287.118,367.874 307.486,350.455C327.848,333.04 345.411,313.007 360.16,290.358C374.91,267.707 385.898,244.06 393.137,219.412C400.367,194.759 403.985,170.068 403.985,145.32C403.985,139.99 403.889,135.995 403.698,133.329C421.785,120.202 437.202,104.306 449.956,85.657Z" style="fill-rule:nonzero;"/>
    </g>
</svg>
